<svg width="24" height="23" viewBox="0 0 24 23" fill="none" xmlns="http://www.w3.org/2000/svg">
<path fill-rule="evenodd" clip-rule="evenodd" d="M11.6478 1.0771C11.1976 1.24004 10.8819 1.49375 10.6141 1.90782C10.2746 2.43305 0.903647 18.8892 0.729982 19.2652C0.545399 19.665 0.523494 20.3108 0.67885 20.7725C0.820803 21.1943 1.22639 21.6379 1.67343 21.8602L2.04705 22.046H12.2799H22.5128L22.8864 21.8602C23.3334 21.6379 23.739 21.1943 23.881 20.7725C24.0362 20.3113 24.0143 19.665 23.8302 19.2652C23.513 18.577 13.8928 1.77633 13.6966 1.56817C13.2078 1.04949 12.3151 0.835575 11.6478 1.0771ZM12.7034 7.256C13.0367 7.34975 13.4221 7.73999 13.5147 8.07752C13.6129 8.43557 13.614 13.8008 13.516 14.1672C13.2434 15.186 11.6839 15.3671 11.1597 14.4407L11.0049 14.1672L10.9859 11.2708C10.9732 9.31422 10.9904 8.28674 11.0389 8.10407C11.221 7.41921 11.9545 7.04553 12.7034 7.256ZM12.8935 16.9486C13.1792 17.086 13.4842 17.5163 13.5508 17.8758C13.6434 18.3757 13.3329 18.9922 12.8672 19.2327C12.3416 19.5042 11.6212 19.3468 11.2762 18.8851C11.0731 18.6132 10.951 18.1585 11.008 17.8858C11.195 16.9909 12.0738 16.554 12.8935 16.9486Z" fill="#FFD30A"/>
</svg>
