<svg width="185" height="200" viewBox="0 0 185 200" fill="none" xmlns="http://www.w3.org/2000/svg">
<path d="M38.8537 184.314L38.7079 184.095L38.4445 184.091L25.6321 183.907C19.5817 183.821 16.363 183.757 14.3273 183.57C12.3298 183.386 11.5066 183.087 10.2408 182.517C8.56323 181.761 6.7 180.327 5.08368 178.637C3.46673 176.946 2.13839 175.042 1.49532 173.375C1.03775 172.188 0.778618 171.145 0.644559 165.023C0.510782 158.914 0.500071 147.817 0.500071 126.577L0.500036 124.038C0.499568 101.877 0.499334 90.8212 0.845039 83.9592C1.18879 77.1362 1.87201 74.4903 3.25343 69.1405C3.30646 68.9352 3.36051 68.7259 3.41561 68.5122C10.0352 42.8412 28.0827 21.0264 52.4166 9.29569L52.1995 8.84529L52.4167 9.29568C61.5574 4.88886 70.3001 2.25412 81.2195 0.618782C81.403 0.591313 81.8946 0.564691 82.6651 0.544328C83.421 0.524354 84.4132 0.510903 85.5726 0.50444C87.8908 0.491516 90.8702 0.506569 93.9504 0.552705C102.938 0.688211 106.17 0.948566 110.402 1.85859C149.857 10.3448 178.569 41.741 183.456 81.7387C184.346 89.0303 183.795 103.054 182.349 109.925L182.838 110.028L182.349 109.925C178.422 128.588 169.994 143.938 156.104 157.719L150.185 163.592L149.991 163.784L150.048 164.052L150.735 167.255C153.064 178.111 146.958 190.826 136.775 196.253C124.286 202.909 108.891 199.045 101.037 187.283L100.621 187.561L101.037 187.283C100.418 186.357 99.7981 185.517 99.294 184.908C99.0433 184.604 98.8133 184.348 98.6217 184.166C98.5272 184.076 98.4295 183.992 98.3344 183.928C98.287 183.896 98.2281 183.862 98.1611 183.835C98.1001 183.81 97.9911 183.775 97.8585 183.789C97.6213 183.816 95.4504 183.875 93.0023 183.92L88.5863 184L88.2914 184.005L88.1534 184.266L87.0975 186.262L87.5394 186.496L87.0974 186.262C86.3342 187.705 84.6146 189.712 82.603 191.615C80.5968 193.514 78.3584 195.254 76.597 196.187C64.0448 202.83 48.6715 199.079 40.9891 187.526L38.8537 184.314ZM90.5217 173.823V174.323L91.0222 174.323L94.6256 174.32C96.6409 174.318 100.692 173.953 103.641 173.51C122.787 170.639 138.647 162.422 151.975 148.467C178.609 120.581 182.089 78.1681 160.422 45.6945C155.814 38.7879 145.788 28.6717 138.938 24.017C129.934 17.8993 119.128 13.3012 108.475 11.0552C105.855 10.5028 100.839 10.03 95.9891 9.76767C91.1478 9.50584 86.3822 9.44862 84.2777 9.7501L84.3486 10.245L84.2777 9.7501C72.3392 11.4608 65.0857 13.5405 56.3703 17.7633L56.3703 17.7634C49.1386 21.2678 43.7999 24.7671 37.9455 29.8413L38.2729 30.2191L37.9455 29.8413C24.9792 41.08 16.0946 55.9603 11.6381 73.872L10.2431 79.4775L10.2286 79.5359L10.2284 79.5962L10.0468 124.557C9.96277 145.309 9.93456 156.582 10.0317 162.825C10.0802 165.944 10.1601 167.824 10.2824 169.01C10.404 170.188 10.5726 170.75 10.8493 171.172C11.2966 171.855 11.7432 172.429 12.3574 172.881C12.9752 173.335 13.7267 173.64 14.75 173.849C16.7636 174.26 19.9703 174.323 25.5982 174.323H36.035H36.535V173.823V171.266C36.535 158.846 46.9605 147.262 59.8769 145.407C75.4647 143.169 90.5217 155.78 90.5217 170.999V173.823ZM96.8586 53.7634L96.7964 54.2595L96.8586 53.7634C94.397 53.4549 93.0616 53.2952 91.7345 53.3048C90.4067 53.3144 89.096 53.4935 86.684 53.8376L86.7547 54.3326L86.684 53.8376C72.9825 55.7929 61.1589 65.4596 56.3551 78.6233C51.8386 90.9982 53.9436 104.488 62.0631 115.289C71.8954 128.37 90.7352 133.565 106.154 127.462C120.36 121.838 129.61 108.942 130.358 93.718C131.363 73.2454 117.164 56.3099 96.8586 53.7634ZM46.0012 79.9472C50.9911 61.6712 65.2686 48.4343 83.9103 44.8025C86.2688 44.3432 89.821 44.1644 93.9403 44.3096C106.278 44.7451 116.371 48.991 125.305 57.5037C133.313 65.1348 138.155 74.8568 139.638 86.3057C142.117 105.433 131.649 125.142 114.214 134.146C87.094 148.154 54.0927 133.449 46.0388 103.751C45.213 100.706 44.7885 96.2633 44.7816 91.8059C44.7747 87.348 45.1856 82.9345 46.0012 79.9472Z" fill="black" stroke="black"/>
</svg>
