<svg width="60" height="60" viewBox="0 0 60 60" fill="none" xmlns="http://www.w3.org/2000/svg">
<path d="M30.2671 43.594H29.7348C26.3258 43.594 23.4995 40.9281 23.3005 37.525L21.505 6.8216C21.4019 5.05734 22.0381 3.30844 23.2506 2.02289C24.4631 0.737226 26.1721 0 27.9393 0H32.0626C33.8297 0 35.5387 0.737226 36.7512 2.02277C37.9638 3.30832 38.6001 5.05746 38.4971 6.82148L36.7016 37.525C36.5024 40.9282 33.676 43.594 30.2671 43.594Z" fill="#FF674F"/>
<path d="M30.2661 43.594C33.6751 43.594 36.5014 40.9282 36.7005 37.525L38.496 6.82148C38.5991 5.05734 37.9628 3.30832 36.7502 2.02277C35.5377 0.737226 33.8287 0 32.0617 0H30V43.594H30.2661Z" fill="#F2472C"/>
<path d="M30 59.9999C26.4461 59.9999 23.5547 57.1085 23.5547 53.5547C23.5547 50.0007 26.4461 47.1094 30 47.1094C33.5539 47.1094 36.4453 50.0007 36.4453 53.5546C36.4453 57.1085 33.5539 59.9999 30 59.9999Z" fill="#FF674F"/>
<path d="M30 47.1094V59.9999C33.5539 59.9999 36.4453 57.1085 36.4453 53.5546C36.4453 50.0007 33.5539 47.1094 30 47.1094Z" fill="#F2472C"/>
<path d="M17.7438 47.0808C17.1389 47.0808 16.5504 46.7685 16.2237 46.2084C14.8098 43.784 14.0625 41.0154 14.0625 38.2021C14.0625 35.3887 14.8098 32.6201 16.2237 30.1959C16.7127 29.3574 17.7888 29.0736 18.6277 29.5631C19.4662 30.0521 19.7496 31.1283 19.2606 31.967C18.1598 33.8544 17.5781 36.0104 17.5781 38.2021C17.5781 40.3938 18.1598 42.5499 19.2606 44.4372C19.7496 45.2758 19.4662 46.3522 18.6277 46.8413C18.3595 46.9982 18.0545 47.0808 17.7438 47.0808Z" fill="#FF9300"/>
<path d="M11.6654 50.6119C11.0605 50.6119 10.472 50.2996 10.1453 49.7394C8.10809 46.2458 7.03125 42.2564 7.03125 38.2022C7.03125 34.148 8.10809 30.1585 10.1454 26.6651C10.6343 25.8265 11.7107 25.543 12.5494 26.0321C13.3881 26.5213 13.6714 27.5975 13.1823 28.4362C11.4581 31.3926 10.5469 34.7696 10.5469 38.2022C10.5469 41.6347 11.4581 45.0117 13.1823 47.9682C13.6713 48.8068 13.388 49.8832 12.5494 50.3723C12.2812 50.5292 11.9761 50.6119 11.6654 50.6119Z" fill="#FFB500"/>
<path d="M5.57824 54.1482C4.97285 54.1482 4.38398 53.8353 4.05738 53.2745C1.40309 48.7151 0 43.5033 0 38.2023C0 32.9016 1.40309 27.6895 4.05738 23.1301C4.54582 22.2912 5.62195 22.0068 6.4609 22.4954C7.29984 22.9839 7.58402 24.06 7.0957 24.8989C4.75359 28.922 3.51562 33.5222 3.51562 38.2023C3.51562 42.8824 4.75359 47.4826 7.0957 51.5055C7.58414 52.3445 7.29996 53.4206 6.4609 53.9091C6.19309 54.0656 5.88846 54.1482 5.57824 54.1482Z" fill="#FFE645"/>
<path d="M42.2712 47.056C41.9715 47.056 41.6681 46.9794 41.3904 46.8182C40.5507 46.331 40.2651 45.2552 40.7524 44.4155C41.8445 42.5337 42.4217 40.3853 42.4217 38.2025C42.4217 36.0195 41.8445 33.8711 40.7524 31.9893C40.2651 31.1497 40.5507 30.0739 41.3904 29.5866C42.2299 29.0995 43.3058 29.3848 43.7931 30.2246C45.1959 32.6418 45.9374 35.4005 45.9374 38.2025C45.9374 41.0044 45.1959 43.763 43.7931 46.1801C43.4669 46.742 42.8773 47.056 42.2712 47.056Z" fill="#FF9300"/>
<path d="M48.3502 50.5869C48.0502 50.5869 47.7465 50.51 47.4685 50.3484C46.6292 49.8605 46.3442 48.7846 46.8322 47.9453C48.5472 44.9948 49.4538 41.6258 49.4538 38.2024C49.4538 34.779 48.5472 31.4099 46.8322 28.4594C46.3442 27.6201 46.6292 26.5442 47.4685 26.0563C48.3073 25.5684 49.3837 25.8531 49.8715 26.6927C51.8982 30.1791 52.9694 34.159 52.9694 38.2024C52.9694 42.2457 51.8982 46.2256 49.8715 49.712C49.5452 50.2734 48.9558 50.5869 48.3502 50.5869Z" fill="#FFB500"/>
<path d="M54.4363 54.123C54.1365 54.123 53.8329 54.0462 53.555 53.8848C52.7155 53.3973 52.4301 52.3214 52.9178 51.482C55.2509 47.4652 56.4839 42.8732 56.4839 38.2023C56.4839 33.5316 55.2509 28.9395 52.9179 24.9228C52.4303 24.0833 52.7155 23.0074 53.5551 22.5199C54.3943 22.0322 55.4703 22.3173 55.958 23.1572C58.6019 27.7095 59.9995 32.9121 59.9995 38.2023C59.9995 43.4925 58.6019 48.6952 55.958 53.2476C55.6317 53.8092 55.0421 54.123 54.4363 54.123Z" fill="#FFE645"/>
</svg>
