<svg width="66" height="66" viewBox="0 0 66 66" fill="none" xmlns="http://www.w3.org/2000/svg">
<path d="M58.567 0.499878H40.8351C37.9788 0.499878 35.6633 2.81537 35.6633 5.67167V23.4035C35.6633 26.2598 37.9788 28.5753 40.8351 28.5753H58.567C61.4233 28.5753 63.7388 26.2598 63.7388 23.4035V5.67167C63.7388 2.81537 61.4233 0.499878 58.567 0.499878Z" fill="#C6C4D4"/>
<path d="M63.6882 46.3459L53.3564 36.0141C52.3855 35.0472 51.071 34.5043 49.7007 34.5043C48.3304 34.5043 47.0159 35.0472 46.045 36.0141L35.7132 46.3459C34.7455 47.3164 34.2021 48.6311 34.2021 50.0016C34.2021 51.3721 34.7455 52.6868 35.7132 53.6573L46.045 63.9891C47.0155 64.9567 48.3302 65.5001 49.7007 65.5001C51.0712 65.5001 52.3858 64.9567 53.3564 63.9891L63.6882 53.6573C64.6566 52.6871 65.2004 51.3724 65.2004 50.0016C65.2004 48.6308 64.6566 47.3161 63.6882 46.3459Z" fill="#C6C4D4"/>
<path d="M23.1031 0.5H5.37126C2.51495 0.5 0.199463 2.81549 0.199463 5.67179V23.4037C0.199463 26.26 2.51495 28.5755 5.37126 28.5755H23.1031C25.9594 28.5755 28.2749 26.26 28.2749 23.4037V5.67179C28.2749 2.81549 25.9594 0.5 23.1031 0.5Z" fill="#C6C4D4"/>
<path d="M23.1031 35.9636H5.37126C2.51495 35.9636 0.199463 38.2791 0.199463 41.1354V58.8673C0.199463 61.7236 2.51495 64.0391 5.37126 64.0391H23.1031C25.9594 64.0391 28.2749 61.7236 28.2749 58.8673V41.1354C28.2749 38.2791 25.9594 35.9636 23.1031 35.9636Z" fill="#C6C4D4"/>
</svg>
