<svg width="78" height="66" viewBox="0 0 78 66" fill="none" xmlns="http://www.w3.org/2000/svg">
<path d="M47.291 11.6564C50.8623 13.8956 53.3666 17.6848 53.8225 22.0831C55.3201 22.7876 56.9544 23.1536 58.6094 23.155C64.8662 23.155 69.9373 18.0838 69.9373 11.828C69.9373 5.57118 64.8662 0.5 58.6094 0.5C52.4123 0.501928 47.3855 5.4825 47.291 11.6564ZM39.8698 34.8502C46.1266 34.8502 51.1978 29.7781 51.1978 23.5223C51.1978 17.2664 46.1256 12.1952 39.8698 12.1952C33.6139 12.1952 28.5399 17.2674 28.5399 23.5232C28.5399 29.7791 33.6139 34.8502 39.8698 34.8502ZM44.6749 35.6223H35.0627C27.0651 35.6223 20.5586 42.1298 20.5586 50.1274V61.8824L20.5885 62.0665L21.3982 62.32C29.0305 64.7048 35.6613 65.5 41.119 65.5C51.779 65.5 57.9577 62.4608 58.3385 62.267L59.0952 61.8843H59.1761V50.1274C59.179 42.1298 52.6726 35.6223 44.6749 35.6223ZM63.4164 23.9281H53.8784C53.7815 27.611 52.2328 31.1063 49.5697 33.6521C56.6786 35.766 61.8799 42.3582 61.8799 50.1448V53.7672C71.2974 53.4221 76.7243 50.753 77.0819 50.5737L77.8386 50.1901H77.9196V38.4312C77.9196 30.4345 71.4131 23.9281 63.4164 23.9281ZM19.9928 23.1569C22.2088 23.1569 24.2707 22.5101 26.0173 21.4084C26.5653 17.8635 28.4513 14.6636 31.287 12.4671C31.2986 12.255 31.3189 12.0449 31.3189 11.8309C31.3189 5.57407 26.2467 0.502892 19.9928 0.502892C13.735 0.502892 8.66481 5.57407 8.66481 11.8309C8.66481 18.0848 13.735 23.1569 19.9928 23.1569ZM30.166 33.6521C27.5177 31.1184 25.9713 27.6454 25.8602 23.982C25.5064 23.956 25.1565 23.9281 24.796 23.9281H15.1848C7.18712 23.9281 0.680664 30.4345 0.680664 38.4312V50.1881L0.710546 50.3694L1.52024 50.6248C7.64306 52.5362 13.1075 53.4173 17.8539 53.6949V50.1448C17.8558 42.3582 23.0552 35.7679 30.166 33.6521Z" fill="#C6C4D4"/>
</svg>
