<svg width="66" height="65" viewBox="0 0 66 65" fill="none" xmlns="http://www.w3.org/2000/svg">
<g clip-path="url(#clip0_3839_537)">
<path d="M46.2509 3.02118C43.2202 3.02118 40.3236 3.71594 37.6417 5.0863C35.8161 6.01895 34.1391 7.25811 32.7 8.72831C31.2608 7.25811 29.5838 6.01895 27.7582 5.0863C25.0762 3.71594 22.1796 3.02118 19.1489 3.02118C8.70048 3.02118 0.199951 11.5217 0.199951 21.9702C0.199951 29.3707 4.10839 37.2306 11.8166 45.3319C18.2525 52.0961 26.1321 57.7346 31.6089 61.2736L32.7 61.9787L33.791 61.2736C39.2678 57.7347 47.1474 52.0961 53.5833 45.3319C61.2915 37.2306 65.2 29.3707 65.2 21.9702C65.2 11.5217 56.6994 3.02118 46.2509 3.02118Z" fill="#C6C4D4"/>
</g>
<defs>
<clipPath id="clip0_3839_537">
<rect width="65" height="65" fill="white" transform="translate(0.199951)"/>
</clipPath>
</defs>
</svg>
