<svg width="63" height="60" viewBox="0 0 63 60" fill="none" xmlns="http://www.w3.org/2000/svg">
<g clip-path="url(#clip0_750_7448)">
<path fill-rule="evenodd" clip-rule="evenodd" d="M32.715 14.74C32.5529 14.5722 32.3587 14.4388 32.144 14.3477C31.9292 14.2565 31.6983 14.2097 31.465 14.2097C31.2317 14.2097 31.0008 14.2565 30.7861 14.3477C30.5713 14.4388 30.3771 14.5722 30.215 14.74L9.22302 35.98C8.89007 36.3189 8.70334 36.7749 8.703 37.25V52.74C8.69707 53.5995 8.86051 54.4519 9.18396 55.2483C9.50741 56.0446 9.98455 56.7694 10.5881 57.3813C11.1917 57.9933 11.9099 58.4803 12.7017 58.8147C13.4935 59.1491 14.3435 59.3242 15.203 59.3301H25.592V43.03H37.327V59.3201H47.727C48.5865 59.3142 49.4364 59.1391 50.2283 58.8047C51.0201 58.4703 51.7383 57.9833 52.3419 57.3713C52.9454 56.7594 53.4226 56.0346 53.746 55.2383C54.0695 54.4419 54.2329 53.5895 54.227 52.73V37.25C54.2261 36.775 54.0395 36.3192 53.707 35.98L32.715 14.74ZM61.874 26.79L52.329 17.1301L52.294 17.0901L45.141 9.8501L45.114 9.82007L38.014 2.63013C36.2555 0.922794 33.901 -0.0322266 31.45 -0.0322266C28.999 -0.0322266 26.6445 0.922794 24.886 2.63013L1.03101 26.79C0.352024 27.4791 -0.0285645 28.4076 -0.0285645 29.375C-0.0285645 30.3424 0.352024 31.2711 1.03101 31.9602C1.36402 32.2998 1.76141 32.5695 2.19995 32.7537C2.63849 32.9378 3.10938 33.0327 3.58502 33.0327C4.06066 33.0327 4.53149 32.9378 4.97003 32.7537C5.40857 32.5695 5.80596 32.2998 6.13898 31.9602L29.987 7.80005C30.3787 7.42095 30.9024 7.20898 31.4475 7.20898C31.9926 7.20898 32.5163 7.42095 32.908 7.80005L56.758 31.9502C57.0918 32.2891 57.4897 32.558 57.9285 32.7417C58.3673 32.9254 58.8383 33.02 59.314 33.02C59.7897 33.02 60.2607 32.9254 60.6995 32.7417C61.1383 32.558 61.5362 32.2891 61.87 31.9502C62.5482 31.263 62.9288 30.3364 62.9295 29.3708C62.9303 28.4053 62.5511 27.4783 61.874 26.79Z" fill="#8C7BEE"/>
</g>
<defs>
<clipPath id="clip0_750_7448">
<rect width="62.937" height="59.34" fill="white"/>
</clipPath>
</defs>
</svg>
