<svg width="56" height="61" viewBox="0 0 56 61" fill="none" xmlns="http://www.w3.org/2000/svg">
<path fill-rule="evenodd" clip-rule="evenodd" d="M27.95 0.0100098C23.6266 0.0176764 19.4826 1.7386 16.4255 4.79565C13.3685 7.85271 11.6477 11.9967 11.64 16.3201C11.64 18.9501 12.6799 21.7999 14.0399 24.9099C15.4972 28.151 17.1262 31.3121 18.9199 34.3799C22.4799 40.4899 26.0599 45.5901 26.0599 45.5901L27.95 48.3601L29.84 45.5901C29.84 45.5901 33.43 40.4899 36.98 34.3799C38.7737 31.3121 40.4027 28.151 41.86 24.9099C43.22 21.7999 44.26 18.9501 44.26 16.3201C44.2523 11.9967 42.5314 7.85271 39.4744 4.79565C36.4173 1.7386 32.2733 0.0176764 27.95 0.0100098ZM27.95 4.66992C29.4811 4.66557 30.9979 4.96393 32.4133 5.54785C33.8287 6.13178 35.1148 6.98984 36.1975 8.07251C37.2802 9.15518 38.1381 10.4413 38.722 11.8567C39.306 13.2721 39.6043 14.7889 39.6 16.3201C39.3229 18.6467 38.6606 20.9109 37.64 23.02C36.2227 26.1094 34.6405 29.1205 32.9 32.04C30.41 36.35 29.13 38.22 27.95 39.98C26.77 38.22 25.49 36.35 23 32.04C21.2627 29.1204 19.6838 26.1093 18.27 23.02C17.2429 20.9127 16.5768 18.6479 16.2999 16.3201C16.2956 14.7889 16.5939 13.2721 17.1779 11.8567C17.7618 10.4413 18.6198 9.15518 19.7025 8.07251C20.7852 6.98984 22.0712 6.13178 23.4866 5.54785C24.902 4.96393 26.4188 4.66557 27.95 4.66992ZM27.95 11.6599C27.0283 11.6599 26.1273 11.9333 25.361 12.4453C24.5946 12.9574 23.9974 13.6851 23.6447 14.5366C23.2919 15.3881 23.1997 16.3251 23.3795 17.229C23.5593 18.133 24.0032 18.9635 24.6549 19.6152C25.3066 20.2669 26.1369 20.7106 27.0409 20.8904C27.9448 21.0702 28.8818 20.9779 29.7333 20.6252C30.5848 20.2725 31.3125 19.6753 31.8246 18.9089C32.3366 18.1426 32.61 17.2417 32.61 16.3201C32.611 15.7078 32.4913 15.1013 32.2574 14.5354C32.0236 13.9695 31.6804 13.4554 31.2474 13.0225C30.8145 12.5895 30.3004 12.2465 29.7345 12.0127C29.1686 11.7789 28.5622 11.6589 27.95 11.6599ZM16.08 38.3101C7.05996 39.9401 -0.0100098 43.5299 -0.0100098 48.9399C-0.0100098 56.5799 14.05 60.5901 27.95 60.5901C41.85 60.5901 55.9099 56.5799 55.9099 48.9399C55.9099 43.5299 48.8399 39.9401 39.8099 38.3101L36.98 42.6001C45.78 43.8801 51.25 46.8199 51.25 48.9399C51.25 51.7199 41.96 55.9299 27.95 55.9299C13.94 55.9299 4.65002 51.7199 4.65002 48.9399C4.65002 46.8199 10.1199 43.8801 18.9199 42.6001L16.08 38.3101Z" fill="white"/>
</svg>
