<svg width="449" height="170" viewBox="0 0 449 170" fill="none" xmlns="http://www.w3.org/2000/svg">
<path fill-rule="evenodd" clip-rule="evenodd" d="M322.258 1.81682C320.842 3.38644 320.701 9.20246 320.701 65.9299V128.318L323.18 130.273C326.465 132.867 330.343 132.747 333.581 129.951L336.22 127.674V65.8685C336.22 6.41621 336.152 3.98862 334.428 2.07732C332.046 -0.564524 324.55 -0.724979 322.258 1.81682ZM39.9579 35.9154C16.5616 41.0178 -0.0553518 60.8416 0.00013856 83.5837C0.0885469 119.819 37.8154 143.699 70.2415 128.043C87.3927 119.762 97.7995 103.193 97.7995 84.1651C97.7995 57.1568 78.3948 36.6459 51.7143 35.4519C47.3174 35.2556 42.027 35.4633 39.9579 35.9154ZM392.18 35.602C364.043 41.0697 346.639 66.045 351.737 93.6395C353.945 105.586 363.929 119.762 374.525 125.995C394.239 137.588 418.492 134.467 434.397 118.289C444.545 107.966 448.611 98.0426 448.611 83.5941C448.611 57.2228 428.831 36.5704 402.526 35.4774C398.129 35.2953 393.474 35.3509 392.18 35.602ZM147.384 37.4359C130.526 41.5341 116.371 55.0803 111.518 71.7591C110.249 76.1178 110.026 83.5355 110.026 121.337C110.026 172.3 109.668 169.984 117.55 169.984C124.998 169.984 125.074 169.713 125.074 143.346C125.074 131.003 125.352 120.904 125.691 120.904C126.03 120.904 127.726 121.989 129.458 123.315C143.079 133.741 163.66 135.667 179.29 127.98C210.502 112.627 216.446 73.8733 191.401 49.0179C180.533 38.2316 163.041 33.6294 147.384 37.4359ZM252.726 37.435C243.355 39.7134 237.009 43.3444 229.869 50.5111C219.324 61.0983 214.663 73.2089 215.655 87.4374C216.906 105.359 226.782 120.015 242.972 127.98C264.126 138.384 290.134 131.067 302.999 111.09C306.85 105.11 307.432 101.761 305.182 98.5362C303.607 96.2813 299.174 94.9599 296.276 95.8821C295.234 96.2143 292.3 99.2601 289.755 102.651C282.311 112.574 275.293 116.27 263.8 116.322C254.009 116.367 247.379 113.555 240.129 106.285C235.094 101.237 234.054 99.5612 232.25 93.6027C228.22 80.2868 232.664 67.0257 244.049 58.4026C250.186 53.7551 256.621 51.6418 264.492 51.6909C272.931 51.7428 280.857 55.5673 287.603 62.8397C291.627 67.1795 292.965 68.0479 295.624 68.0479C297.429 68.0479 299.892 67.1975 301.294 66.0913C305.057 63.121 304.655 58.9557 300.04 53.0973C289.514 39.7323 269.933 33.2509 252.726 37.435ZM63.5572 54.1355C69.2276 57.0567 77.5634 65.8581 80.3078 71.8233C81.7985 75.0616 82.265 77.9763 82.2716 84.0934C82.2801 90.9929 81.9095 92.874 79.6306 97.5329C69.1552 118.941 42.6374 123.975 26.3656 107.644C21.1053 102.365 18.3392 96.858 16.84 88.6758C14.1379 73.9281 23.4819 58.3017 38.3562 52.6942C45.046 50.1723 57.2154 50.8679 63.5572 54.1355ZM169.279 53.4918C178.652 56.5687 186.677 65.2427 189.652 75.5119C193.834 89.95 186.06 107.243 172.363 113.967C164.936 117.614 154.902 118.098 147.176 115.183C139.51 112.29 130.09 102.866 127.421 95.4196C124.686 87.7914 124.948 78.5161 128.093 71.6581C135.561 55.37 152.39 47.9467 169.279 53.4918ZM414.369 54.1355C420.067 57.0709 427.717 65.1654 430.788 71.5099C432.558 75.1645 433.006 77.6648 433.045 84.0934C433.086 90.9835 432.73 92.8589 430.519 97.3743C419.983 118.905 393.482 124.008 377.177 107.644C359.674 90.0802 366.1 61.0473 389.363 52.5781C395.917 50.1921 408.2 50.9566 414.369 54.1355Z" fill="white"/>
</svg>
