<svg width="62" height="63" viewBox="0 0 62 63" fill="none" xmlns="http://www.w3.org/2000/svg">
<path fill-rule="evenodd" clip-rule="evenodd" d="M35.8438 0.463278C35.5086 0.711091 33.3978 2.76765 31.1533 5.03359C26.6756 9.5539 26.5081 9.7875 26.8725 11.0039C27.002 11.4362 27.4222 12.0119 28.1737 12.787L29.2836 13.9317L25.5345 17.6808L21.7855 21.4298L19.8381 21.0967C17.1405 20.6353 12.4055 20.5167 10.1886 20.855C7.14937 21.3189 4.44344 22.4869 2.76 24.0616C2.34422 24.4505 1.90469 24.9608 1.78328 25.1956C1.52188 25.7011 1.49781 26.5384 1.72719 27.1512C1.81766 27.3931 5.17422 30.8783 9.18594 34.8959L16.48 42.2006L8.48094 50.2084C0.555 58.143 0 58.7656 0 59.7242C0 60.3186 0.624063 61.3931 1.16234 61.7258C1.73922 62.0823 3.07141 62.1606 3.64313 61.8717C3.83078 61.7767 7.5875 58.1036 11.9914 53.7091L19.9983 45.7189L27.2258 52.9278C31.2008 56.8927 34.6781 60.2494 34.9531 60.3872C35.2283 60.5252 35.8058 60.638 36.2369 60.638C36.8934 60.638 37.1114 60.558 37.5825 60.1444C38.3609 59.4609 39.4184 57.9392 40.0733 56.5603C41.6542 53.2312 42.0386 47.8506 41.0934 42.2817L40.7758 40.41L44.5227 36.663L48.2695 32.9161L49.4866 34.1005C50.4819 35.0691 50.8228 35.305 51.3569 35.3953C52.5452 35.5959 53.0053 35.2467 57.4487 30.7719C61.7303 26.4602 61.8733 26.2716 61.8733 24.9348C61.8733 23.5105 62.2317 23.912 50.1827 11.8384C43.9377 5.58078 38.6383 0.359997 38.4062 0.236872C37.6733 -0.152035 36.5411 -0.0520345 35.8438 0.463278ZM53.5659 26.6816L51.352 28.8994L50.1937 27.8178C48.2323 25.9861 47.2802 25.9831 45.4434 27.8034C42.1716 31.0461 35.4033 38.1239 35.2017 38.5136C34.9137 39.0705 34.9741 39.7741 35.558 42.6692C35.9263 44.4952 35.9856 45.1775 35.9995 47.7473C36.0156 50.7119 35.9081 51.638 35.3563 53.2942C35.2273 53.6809 35.0917 54.0295 35.0547 54.0687C34.9753 54.153 7.65625 26.8627 7.65625 26.6992C7.65625 26.5173 9.55906 25.985 10.8517 25.8052C13.3672 25.4553 17.072 25.6973 20.3391 26.4252C21.975 26.7895 22.6806 26.8097 23.25 26.5084C23.482 26.3855 26.2156 23.7312 29.3247 20.61C34.2577 15.6577 34.9912 14.8598 35.0848 14.3462C35.2398 13.4952 34.943 12.9137 33.6808 11.5962L32.5781 10.4452L34.9219 8.20062L37.2656 5.95594L46.5227 15.2098L55.7798 24.4636L53.5659 26.6816Z" fill="#C6C4D4"/>
</svg>
