<svg width="54" height="65" viewBox="0 0 54 65" fill="none" xmlns="http://www.w3.org/2000/svg">
<g clip-path="url(#clip0_750_7463)">
<path fill-rule="evenodd" clip-rule="evenodd" d="M26.5998 31.3001C30.7428 31.2876 34.7116 29.6315 37.6346 26.6954C40.5576 23.7592 42.196 19.783 42.1899 15.6399C42.1829 13.0777 41.5445 10.5568 40.3312 8.30009C39.1179 6.04335 37.367 4.12041 35.2336 2.70146C33.1002 1.2825 30.6499 0.411312 28.0996 0.164837C25.5492 -0.0816383 22.9776 0.30423 20.6119 1.28837C18.2462 2.27251 16.1595 3.82455 14.5364 5.80717C12.9134 7.7898 11.8041 10.1419 11.3066 12.6553C10.8091 15.1688 10.9388 17.7662 11.6842 20.2176C12.4295 22.669 13.7675 24.8989 15.5799 26.71C17.0059 28.1872 18.7193 29.3566 20.6146 30.146C22.5099 30.9355 24.5468 31.3283 26.5998 31.3001ZM18.2598 7.27006C19.3525 6.17035 20.652 5.2975 22.0833 4.70195C23.5146 4.10639 25.0495 3.79985 26.5998 3.79985C28.1501 3.79985 29.6851 4.10639 31.1164 4.70195C32.5477 5.2975 33.8472 6.17035 34.9399 7.27006C37.1557 9.49409 38.3998 12.5056 38.3998 15.6451C38.3998 18.7845 37.1557 21.796 34.9399 24.0201C33.8472 25.1198 32.5477 25.9926 31.1164 26.5882C29.6851 27.1837 28.1501 27.4903 26.5998 27.4903C25.0495 27.4903 23.5146 27.1837 22.0833 26.5882C20.652 25.9926 19.3525 25.1198 18.2598 24.0201C16.044 21.796 14.7999 18.7845 14.7999 15.6451C14.7999 12.5056 16.044 9.49409 18.2598 7.27006ZM53.8798 49.97C53.7749 48.595 53.598 47.2266 53.3498 45.8702C53.1074 44.4721 52.7701 43.0921 52.3399 41.74C51.9162 40.3983 51.3531 39.1044 50.6599 37.8799C49.973 36.654 49.1142 35.5328 48.1098 34.5501C47.0525 33.5482 45.8092 32.7634 44.4499 32.24C42.9572 31.6651 41.3694 31.3767 39.7698 31.3899C38.838 31.4909 37.9573 31.8669 37.2398 32.47C36.4798 32.96 35.5898 33.54 34.5998 34.18C33.525 34.8197 32.3767 35.3267 31.1799 35.69C28.4682 36.5833 25.5416 36.5833 22.8299 35.69C21.6323 35.3287 20.4837 34.8215 19.4099 34.18C18.4399 33.55 17.5399 32.97 16.7799 32.46C16.0563 31.8622 15.173 31.4901 14.2398 31.3899C12.6434 31.3757 11.0589 31.6642 9.56989 32.24C8.20941 32.761 6.96547 33.5461 5.90986 34.5501C4.89882 35.527 4.0393 36.6492 3.35981 37.8799C2.66757 39.1062 2.10141 40.3996 1.66987 41.74C1.23969 43.0921 0.902225 44.4721 0.659861 45.8702C0.409231 47.2259 0.2356 48.5946 0.139841 49.97C0.0498411 51.21 0.00983618 52.5101 0.00983618 53.8101C-0.0576438 55.3191 0.191291 56.8254 0.740671 58.2325C1.29005 59.6395 2.12779 60.916 3.1999 61.98C5.43307 64.0325 8.38935 65.115 11.4199 64.99H42.5899C44.0906 65.0529 45.5889 64.8195 46.9993 64.303C48.4098 63.7866 49.7046 62.9971 50.8099 61.98C51.8828 60.9166 52.7209 59.6401 53.2703 58.233C53.8198 56.8258 54.0682 55.3192 53.9998 53.8101C53.9998 52.5001 53.9598 51.21 53.8798 49.97Z" fill="#C6C4D4"/>
</g>
<defs>
<clipPath id="clip0_750_7463">
<rect width="54" height="65" fill="white"/>
</clipPath>
</defs>
</svg>
