<svg width="54" height="50" viewBox="0 0 54 50" fill="none" xmlns="http://www.w3.org/2000/svg">
<path fill-rule="evenodd" clip-rule="evenodd" d="M27.0048 50C26.2302 49.9983 25.4846 49.7053 24.9155 49.1797C22.7362 47.1997 20.6268 45.3299 18.7773 43.6899L18.7673 43.6797C13.329 38.8497 8.63038 34.6896 5.36137 30.5796C1.71248 25.9896 0.0030132 21.6397 0.0030132 16.8897C-0.077238 12.5005 1.44792 8.23319 4.29175 4.88972C5.63647 3.34892 7.29624 2.11519 9.15893 1.27156C11.0216 0.427922 13.0438 -0.00559328 15.0885 7.54595e-05C18.1839 -0.00603203 21.1835 1.07298 23.5659 3.04988C24.8887 4.11802 26.0473 5.37476 27.0048 6.77985C27.9617 5.37739 29.1168 4.12103 30.4338 3.04988C32.8162 1.07298 35.8159 -0.00603203 38.9112 7.54595e-05C40.9561 -0.00657462 42.9785 0.426391 44.8413 1.27009C46.7042 2.1138 48.3638 3.34816 49.7079 4.88972C52.5559 8.23079 54.0816 12.4998 53.9966 16.8897C53.9966 21.6397 52.2872 25.9896 48.6383 30.5796C45.3793 34.6896 40.6707 38.8497 35.2423 43.6797C33.3729 45.3197 31.2735 47.1897 29.0942 49.1797C28.5251 49.7053 27.7794 49.9983 27.0048 50Z" fill="#EE3A43"/>
</svg>
