<svg width="65" height="65" viewBox="0 0 65 65" fill="none" xmlns="http://www.w3.org/2000/svg">
<path d="M24.4738 23.5546C28.9621 26.1461 36.2288 26.1461 40.6903 23.5546C45.1652 20.9632 45.1251 16.7555 40.6369 14.164C36.1486 11.5726 28.8819 11.5726 24.4204 14.164C19.9588 16.7555 19.9855 20.9498 24.4738 23.5546ZM26.5309 19.0664C26.8782 18.9595 27.2122 18.8393 27.5461 18.7324C27.7999 18.6523 27.9469 18.6389 28.0537 18.6924C28.1205 18.7324 28.1606 18.7859 28.214 18.8794C28.4411 19.3068 28.8151 19.6808 29.2827 20.0281C29.3628 20.0949 29.4429 20.1484 29.5365 20.2018C29.7903 20.3487 30.0708 20.4556 30.4181 20.5357C31.2863 20.7228 32.0611 20.3888 31.9676 19.8545C31.9409 19.6675 31.8474 19.5072 31.7272 19.3335C31.4333 18.8927 31.0593 18.4786 30.8589 18.0245C30.5383 17.2764 30.6852 16.6085 31.7138 16.0742C32.8893 15.4731 34.185 15.4464 35.5742 15.807C36.1353 15.9673 36.1353 15.9673 36.5761 15.7135C36.723 15.6334 36.8699 15.5399 37.0169 15.4597C37.3508 15.2727 37.4711 15.2727 37.805 15.4597C37.9119 15.5132 38.0054 15.58 38.1122 15.6334C38.8068 16.0341 38.8068 16.0341 38.1256 16.4482C37.6313 16.7287 37.6314 16.7287 38.0454 17.0627C38.366 17.3165 38.6065 17.5836 38.8068 17.8775C38.9137 18.0378 38.8469 18.158 38.5931 18.2382C38.2057 18.3584 37.8184 18.492 37.431 18.6122C37.1905 18.679 37.0436 18.6924 36.9367 18.6389C36.8833 18.5988 36.8299 18.5454 36.7764 18.4653C36.5226 18.0512 36.1353 17.7039 35.6143 17.3966C35.5475 17.3566 35.4674 17.3165 35.3872 17.2764C35.2136 17.1963 35.0533 17.1161 34.8396 17.0627C34.0915 16.889 33.437 17.1695 33.5305 17.6371C33.5705 17.8775 33.7041 18.0912 33.8644 18.305C34.1316 18.679 34.4121 19.053 34.6125 19.4404C35.2403 20.696 33.8778 21.925 31.7004 22.0452C30.9123 22.0853 30.1643 21.9918 29.483 21.7647C29.1891 21.6712 28.9621 21.6845 28.7216 21.8315C28.4945 21.9784 28.2407 22.112 28.0137 22.2456C27.7999 22.3658 27.5728 22.3791 27.3591 22.2589C27.1988 22.1788 27.0519 22.0853 26.8916 22.0051C26.7847 21.9383 26.6779 21.8849 26.571 21.8181C26.3439 21.6845 26.3706 21.5509 26.5844 21.4174C26.758 21.3105 26.9317 21.217 27.092 21.1101C27.4793 20.883 27.4793 20.8697 27.1587 20.6159C26.758 20.2953 26.3973 19.9614 26.1703 19.5873C26.0233 19.2935 26.0634 19.2267 26.5309 19.0664ZM42.1463 24.3828C43.3886 23.6615 45.3923 23.6615 46.6346 24.3828C47.8769 25.1041 47.8902 26.2663 46.6479 26.9876C45.419 27.7089 43.402 27.7089 42.1597 26.9876C40.9174 26.2663 40.904 25.1041 42.1463 24.3828ZM18.4761 10.7177C19.7184 9.99635 21.7221 9.99635 22.9777 10.7177C24.22 11.439 24.2334 12.6011 22.9911 13.3225C21.7621 14.0438 19.7451 14.0438 18.5028 13.3225C17.2472 12.6011 17.2338 11.439 18.4761 10.7177ZM1.65849 16.2879L37.097 36.7389C39.1408 37.9277 42.4669 37.9277 44.4973 36.7389L63.4789 25.7053C65.5093 24.5164 65.5093 22.5929 63.4656 21.4174L28.027 0.953045C25.9832 -0.235809 22.6571 -0.222452 20.6134 0.953045L1.63178 12C-0.398626 13.1755 -0.385268 15.0991 1.65849 16.2879ZM9.35265 11.9466C9.12557 11.813 8.88512 11.7062 8.63132 11.5993L19.9722 5.01385C20.1458 5.16079 20.3462 5.29437 20.5733 5.42795C22.6438 6.63016 26.01 6.6168 28.0671 5.42795C28.3075 5.29437 28.5079 5.14743 28.6815 4.98713L56.279 20.9231C55.905 21.0567 55.571 21.2036 55.2504 21.3906C53.18 22.5929 53.1933 24.5298 55.2772 25.732C55.5977 25.919 55.945 26.0659 56.3191 26.1995L44.8713 32.8517C44.6443 32.638 44.3771 32.4376 44.0565 32.2506C41.9727 31.0484 38.6198 31.0484 36.5627 32.2506C36.4024 32.3441 36.2688 32.4376 36.1353 32.5445L8.61796 16.6486C8.88512 16.5417 9.13892 16.4215 9.36601 16.2879C11.4365 15.0991 11.4231 13.1488 9.35265 11.9466ZM0.736796 20.3754C1.63178 19.9079 3.03436 19.9747 3.90262 20.4823L40.9308 41.855L60.9543 30.2202C61.8225 29.7126 63.2385 29.7126 64.1067 30.2202C64.9883 30.7278 64.9883 31.5427 64.1201 32.0503L42.8409 44.4197C41.799 45.0208 40.1026 45.0208 39.0606 44.4197L38.3126 43.9922L37.7916 43.685L0.656649 22.2589C-0.238331 21.7246 -0.224973 20.8697 0.736796 20.3754ZM64.1602 38.7426L42.881 51.112C41.8391 51.7131 40.1426 51.7131 39.1007 51.112L38.3527 50.6846L37.8184 50.3773L0.696723 28.9379C-0.211615 28.4169 -0.184899 27.562 0.77687 27.0544C1.67185 26.5869 3.07443 26.6537 3.9427 27.1613L40.9708 48.5339L60.981 36.9125C61.8492 36.4049 63.2652 36.4049 64.1468 36.9125C65.0151 37.4201 65.0284 38.235 64.1602 38.7426ZM0.736796 33.7467C1.63178 33.2792 3.03436 33.346 3.90262 33.8536L40.9308 55.2396L60.9543 43.5915C61.8225 43.0839 63.2385 43.0839 64.1067 43.5915C64.9883 44.0991 64.9883 44.9139 64.1201 45.4215L42.8409 57.791C41.799 58.3921 40.1026 58.3921 39.0606 57.791L38.3126 57.3635L37.7916 57.0563L0.656649 35.6302C-0.238331 35.1092 -0.224973 34.2543 0.736796 33.7467ZM64.1602 52.1138L42.881 64.4833C41.8391 65.0844 40.1426 65.0844 39.1007 64.4833L38.3527 64.0558L37.8184 63.7486L0.696723 42.3091C-0.211615 41.7882 -0.184899 40.9333 0.77687 40.4257C1.67185 39.9581 3.07443 40.0249 3.9427 40.5325L40.9708 61.9052L60.9943 50.2705C61.8626 49.7629 63.2785 49.7629 64.1602 50.2705C65.0151 50.7914 65.0284 51.6062 64.1602 52.1138Z" fill="#C6C4D4"/>
</svg>
