<svg width="58" height="58" viewBox="0 0 58 58" fill="none" xmlns="http://www.w3.org/2000/svg">
<path fill-rule="evenodd" clip-rule="evenodd" d="M28.18 0.208636C27.4073 0.616851 27.3008 1.00705 27.3008 3.43152C27.3008 5.31824 27.3245 5.58366 27.5288 5.9844C27.7853 6.48724 28.4379 6.88809 29 6.88809C29.5621 6.88809 30.2147 6.48724 30.4712 5.9844C30.6755 5.58366 30.6992 5.31824 30.6992 3.43152C30.6992 1.5448 30.6755 1.27938 30.4712 0.878644C30.0532 0.0589266 29.0299 -0.240265 28.18 0.208636ZM9.30832 8.10254C8.87026 8.18606 8.19035 8.95705 8.10403 9.46828C7.98395 10.1797 8.2684 10.6726 9.54848 11.9717C11.1405 13.5875 11.4468 13.8015 12.1664 13.8004C12.5413 13.8 12.8579 13.7247 13.068 13.5861C13.5836 13.2461 13.8187 12.7955 13.8195 12.1466C13.8205 11.4186 13.6011 11.1077 11.937 9.47882C11.01 8.5715 10.5929 8.24205 10.252 8.14787C9.78546 8.01901 9.75476 8.01754 9.30832 8.10254ZM47.5215 8.23309C47.0917 8.43935 44.7614 10.7073 44.3654 11.3049C44.107 11.6948 44.1228 12.636 44.3947 13.0486C44.7345 13.5644 45.1849 13.7996 45.8336 13.8004C46.5611 13.8015 46.8714 13.5824 48.501 11.9171C49.4452 10.9522 49.7349 10.581 49.8353 10.2072C50.212 8.80439 48.815 7.6125 47.5215 8.23309ZM17.2754 13.8452C15.5235 14.2719 14.1077 15.6339 13.5892 17.3912C13.5124 17.6515 12.7808 24.5873 11.9635 32.8041L10.4774 47.7436L9.2885 47.8003C7.8923 47.8668 7.47577 48.042 7.13785 48.7048C6.92851 49.1153 6.91016 49.3705 6.91016 51.8756V54.6001H5.88609C5.08338 54.6001 4.76552 54.6494 4.41502 54.8282C3.91239 55.0848 3.51172 55.7377 3.51172 56.3C3.51172 56.8624 3.91239 57.5153 4.41502 57.7719C4.85897 57.9984 5.03184 58 29 58C52.9682 58 53.141 57.9984 53.585 57.7719C54.0876 57.5153 54.4883 56.8624 54.4883 56.3C54.4883 55.7377 54.0876 55.0848 53.585 54.8282C53.2345 54.6494 52.9166 54.6001 52.1139 54.6001H51.0898V51.8756C51.0898 49.3705 51.0715 49.1153 50.8621 48.7048C50.5242 48.042 50.1077 47.8668 48.7115 47.8003L47.5227 47.7436L46.0359 32.8018C45.2181 24.5838 44.4866 17.648 44.4101 17.3889C43.8782 15.5863 42.3872 14.1956 40.5775 13.8144C39.6901 13.6274 18.0518 13.6561 17.2754 13.8452ZM40.341 17.3353C41.178 17.8059 41.0683 17.0616 42.6411 32.954C43.4276 40.9013 44.0701 47.4929 44.0688 47.602C44.0665 47.7886 43.6717 47.8003 37.3828 47.8003H30.6992V40.0915V32.3826L32.7159 33.9005C33.825 34.7352 34.8929 35.5012 35.0891 35.6028C35.8565 35.9998 36.8693 35.6655 37.2681 34.8836C37.4873 34.4537 37.4961 34.2248 37.4961 28.9875C37.4961 23.7501 37.4873 23.5212 37.2681 23.0914C36.8709 22.3126 35.8565 21.9752 35.0957 22.3688C34.9031 22.4684 33.4527 23.5202 31.8728 24.7061L29 26.8622L26.1272 24.7061C24.5473 23.5202 23.0969 22.4684 22.9043 22.3688C22.1435 21.9752 21.1291 22.3126 20.7319 23.0914C20.5127 23.5212 20.5039 23.7501 20.5039 28.9875C20.5039 34.2248 20.5127 34.4537 20.7319 34.8836C21.1307 35.6655 22.1435 35.9998 22.9109 35.6028C23.1071 35.5012 24.175 34.7352 25.2841 33.9005L27.3008 32.3826V40.0915V47.8003H20.6172C14.3284 47.8003 13.9335 47.7886 13.9309 47.602C13.9294 47.4929 14.5719 40.9013 15.3587 32.954C16.9273 17.109 16.8241 17.8146 17.6426 17.3399L18.0684 17.093L28.9846 17.0904L39.9008 17.0878L40.341 17.3353ZM0.879176 27.5212C0.400902 27.7738 0 28.4425 0 28.9875C0 29.5498 0.400676 30.2027 0.903305 30.4593C1.30387 30.6637 1.56917 30.6874 3.45508 30.6874C5.90127 30.6874 6.27454 30.5829 6.68212 29.7837C6.97099 29.2173 6.97099 28.7576 6.68212 28.1912C6.27284 27.3886 5.90422 27.2867 3.43129 27.2925C1.53655 27.297 1.25618 27.3221 0.879176 27.5212ZM26.0547 28.9875C26.0547 29.0346 25.5704 29.4374 24.9785 29.8824L23.9023 30.6917V28.9875V27.2832L24.9785 28.0925C25.5704 28.5376 26.0547 28.9403 26.0547 28.9875ZM34.0977 28.9896V30.6917L33.0176 29.8795C32.4236 29.4329 31.9531 29.0206 31.9723 28.9633C31.9997 28.8809 33.9589 27.3219 34.0693 27.2945C34.0849 27.2907 34.0977 28.0534 34.0977 28.9896ZM51.969 27.5212C51.4907 27.7738 51.0898 28.4425 51.0898 28.9875C51.0898 29.5498 51.4905 30.2027 51.9931 30.4593C52.3937 30.6637 52.659 30.6874 54.5449 30.6874C56.4308 30.6874 56.6961 30.6637 57.0967 30.4593C57.5993 30.2027 58 29.5498 58 28.9875C58 28.4251 57.5993 27.7722 57.0967 27.5157C56.6943 27.3103 56.4367 27.288 54.5211 27.2925C52.6264 27.297 52.346 27.3221 51.969 27.5212ZM47.6914 52.9001V54.6001H29H10.3086V52.9001V51.2002H29H47.6914V52.9001Z" fill="#4A944A"/>
</svg>
