<svg width="60" height="60" viewBox="0 0 60 60" fill="none" xmlns="http://www.w3.org/2000/svg">
<g clip-path="url(#clip0_3525_783)">
<path d="M5 22.5003H12.5V52.5003H5C4.33696 52.5003 3.70107 52.2369 3.23223 51.768C2.76339 51.2992 2.5 50.6633 2.5 50.0003V25.0003C2.5 24.3372 2.76339 23.7014 3.23223 23.2325C3.70107 22.7637 4.33696 22.5003 5 22.5003ZM18.2325 19.2678L34.2325 3.26778C34.4452 3.05451 34.7277 2.9252 35.028 2.90361C35.3284 2.88202 35.6265 2.96961 35.8675 3.15028L38 4.75028C38.5923 5.19489 39.0396 5.80491 39.2856 6.50342C39.5317 7.20192 39.5654 7.95764 39.3825 8.67528L36.5 20.0003H52.5C53.8261 20.0003 55.0979 20.5271 56.0355 21.4647C56.9732 22.4024 57.5 23.6742 57.5 25.0003V30.2603C57.5007 30.9137 57.3733 31.5609 57.125 32.1653L49.3875 50.9528C49.1987 51.4108 48.8782 51.8025 48.4664 52.078C48.0547 52.3535 47.5704 52.5005 47.075 52.5003H20C19.337 52.5003 18.7011 52.2369 18.2322 51.768C17.7634 51.2992 17.5 50.6633 17.5 50.0003V21.0353C17.5001 20.3723 17.7636 19.7365 18.2325 19.2678Z" fill="black"/>
</g>
<defs>
<clipPath id="clip0_3525_783">
<rect width="60" height="60" fill="white"/>
</clipPath>
</defs>
</svg>
