<svg width="30" height="28" viewBox="0 0 30 28" fill="none" xmlns="http://www.w3.org/2000/svg">
<path fill-rule="evenodd" clip-rule="evenodd" d="M16.4257 0.518684C16.1634 0.632908 15.8939 0.96106 15.8165 1.2603C15.7822 1.39302 15.6051 2.08566 15.4231 2.79946C14.8115 5.19785 13.8166 7.05324 12.3632 8.50651C11.5234 9.3462 10.5572 9.9756 9.91674 10.1C9.7331 10.1357 9.71004 10.116 9.53245 9.77236C9.31963 9.36059 8.79996 8.86227 8.34808 8.63656C7.71053 8.31818 7.58712 8.30847 4.1671 8.30763C1.07777 8.30685 0.947588 8.31179 0.700254 8.43794C0.534778 8.52233 0.396459 8.66066 0.31206 8.82613C0.182532 9.08004 0.180969 9.1916 0.180969 18.0752C0.180969 26.9588 0.182532 27.0703 0.31206 27.3242C0.396459 27.4897 0.534778 27.628 0.700254 27.7124C0.947588 27.8386 1.07777 27.8435 4.1671 27.8427C6.6394 27.8421 7.4518 27.822 7.70258 27.7549C8.42147 27.5626 9.06553 27.1107 9.4362 26.5386C9.5514 26.3609 9.67488 26.2155 9.71069 26.2155C9.74644 26.2155 10.6186 26.4938 11.6489 26.834C14.8001 27.8746 14.5093 27.8406 20.2786 27.8422C23.0732 27.8431 24.9122 27.8183 25.1299 27.777C26.34 27.5475 27.2757 26.5781 27.4806 25.3414C27.5473 24.9385 27.5059 24.4294 27.3689 23.9684C27.3361 23.858 27.3944 23.8099 27.747 23.6563C29.3962 22.9378 29.9732 20.8876 28.9577 19.3545L28.7574 19.052L28.9577 18.7495C29.3202 18.2022 29.4423 17.7864 29.4423 17.0983C29.4423 16.4103 29.3202 15.9945 28.9577 15.4472L28.7574 15.1447L28.9577 14.8422C30.1272 13.0766 29.1485 10.7186 27.0835 10.327C26.8778 10.288 25.5263 10.2605 23.8115 10.2605C22.2046 10.2605 20.8898 10.2479 20.8898 10.2326C20.8898 10.2173 20.963 9.93158 21.0525 9.5977C21.5742 7.65041 21.8253 4.72057 21.5734 3.52036C21.4188 2.78416 21.0741 2.16243 20.505 1.59333C19.9359 1.02429 19.3142 0.679601 18.578 0.525001C18.0009 0.403874 16.6981 0.400031 16.4257 0.518684ZM18.5665 2.5643C18.9394 2.72926 19.3662 3.15626 19.5451 3.54322C19.674 3.82207 19.6845 3.9462 19.6786 5.11586C19.6718 6.46018 19.5766 7.3052 19.2898 8.56733C19.1113 9.35284 19.0477 9.58103 18.8968 9.97632L18.7882 10.2605H17.6874C16.7126 10.2605 16.5571 10.2756 16.3296 10.3916C16.0406 10.539 15.8103 10.9142 15.8103 11.2373C15.8103 11.5605 16.0406 11.9357 16.3296 12.0831C16.5806 12.2112 16.7038 12.2142 21.6713 12.2142C26.6388 12.2142 26.762 12.2172 27.013 12.3453C27.302 12.4927 27.5323 12.8679 27.5323 13.191C27.5323 13.5141 27.302 13.8893 27.013 14.0368C26.7835 14.1538 26.6302 14.1678 25.5786 14.1678C24.2084 14.1678 23.9891 14.2303 23.7561 14.6871C23.59 15.0126 23.59 15.2767 23.7561 15.6022C23.9891 16.0591 24.2084 16.1215 25.5786 16.1215C26.9489 16.1215 27.1681 16.184 27.4012 16.6408C27.5673 16.9663 27.5673 17.2304 27.4012 17.5559C27.1681 18.0127 26.9489 18.0752 25.5786 18.0752C24.5271 18.0752 24.3737 18.0892 24.1442 18.2063C23.8553 18.3537 23.625 18.7289 23.625 19.052C23.625 19.3751 23.8553 19.7503 24.1442 19.8978C24.3737 20.0148 24.5271 20.0288 25.5786 20.0288C26.9489 20.0288 27.1681 20.0913 27.4012 20.5481C27.5673 20.8736 27.5673 21.1377 27.4012 21.4632C27.1681 21.9201 26.9489 21.9825 25.5786 21.9825C24.5271 21.9825 24.3737 21.9965 24.1442 22.1136C23.8553 22.261 23.625 22.6362 23.625 22.9593C23.625 23.4549 24.1063 23.9362 24.6018 23.9362C25.0973 23.9362 25.5786 24.4175 25.5786 24.913C25.5786 25.2389 25.3484 25.6112 25.0539 25.7615C24.795 25.8936 24.7274 25.8951 20.0567 25.8741C15.8107 25.8551 15.2643 25.8408 14.7644 25.7363C14.4578 25.6722 13.2563 25.3052 12.0944 24.9207L9.98186 24.2216L9.96525 18.1673L9.94865 12.113L10.4009 11.9965C11.4076 11.7371 12.4988 11.0776 13.4886 10.1303C14.636 9.03205 15.4566 7.89885 16.2004 6.38574C16.7156 5.33734 16.9634 4.65968 17.2834 3.42268C17.4085 2.93915 17.5244 2.50289 17.5411 2.45314C17.5827 2.32889 18.1809 2.39375 18.5665 2.5643ZM7.47635 10.3916C7.64183 10.476 7.78014 10.6143 7.86454 10.7798C7.99355 11.0327 7.99563 11.1496 7.99563 18.0752C7.99563 25.0007 7.99355 25.1177 7.86454 25.3706C7.78014 25.536 7.64183 25.6744 7.47635 25.7588C7.23175 25.8835 7.09649 25.8898 4.67701 25.8898H2.13464V18.0752V10.2605H4.67701C7.09649 10.2605 7.23175 10.2668 7.47635 10.3916ZM4.59372 22.1168C4.31877 22.2619 4.0883 22.6462 4.0883 22.9593C4.0883 23.4549 4.56962 23.9362 5.06514 23.9362C5.56065 23.9362 6.04197 23.4549 6.04197 22.9593C6.04197 22.6362 5.81163 22.261 5.52268 22.1136C5.20183 21.9499 4.90793 21.9509 4.59372 22.1168Z" fill="url(#paint0_linear_2979_730)"/>
<defs>
<linearGradient id="paint0_linear_2979_730" x1="0.442955" y1="1.44609" x2="33.5103" y2="10.6865" gradientUnits="userSpaceOnUse">
<stop stop-color="#008E6C"/>
<stop offset="1" stop-color="#008E3C"/>
</linearGradient>
</defs>
</svg>
