<svg width="30" height="28" viewBox="0 0 30 28" fill="none" xmlns="http://www.w3.org/2000/svg">
<path fill-rule="evenodd" clip-rule="evenodd" d="M16.4479 27.756C16.1855 27.6417 15.916 27.3136 15.8386 27.0144C15.8043 26.8816 15.6273 26.189 15.4452 25.4752C14.8336 23.0768 13.8388 21.2214 12.3853 19.7681C11.5455 18.9285 10.5793 18.2991 9.9389 18.1747C9.75525 18.139 9.7322 18.1587 9.55461 18.5023C9.34179 18.9141 8.82211 19.4124 8.37023 19.6381C7.73269 19.9565 7.60928 19.9662 4.18926 19.967C1.09992 19.9678 0.969744 19.9629 0.722409 19.8367C0.556934 19.7523 0.418614 19.614 0.334216 19.4485C0.204688 19.1946 0.203125 19.0831 0.203125 10.1995C0.203125 1.3159 0.204688 1.20435 0.334216 0.950436C0.418614 0.78496 0.556934 0.646639 0.722409 0.562241C0.969744 0.4361 1.09992 0.431152 4.18926 0.431932C6.66155 0.43252 7.47395 0.452707 7.72474 0.519783C8.44362 0.712088 9.08768 1.16397 9.45836 1.73607C9.57356 1.91379 9.69703 2.05921 9.73285 2.05921C9.7686 2.05921 10.6408 1.78087 11.6711 1.44061C14.8222 0.400087 14.5314 0.43408 20.3008 0.432453C23.0954 0.431606 24.9344 0.456354 25.152 0.497641C26.3621 0.727131 27.2978 1.69661 27.5027 2.93328C27.5695 3.33612 27.5281 3.84525 27.3911 4.30625C27.3582 4.41663 27.4165 4.46476 27.7692 4.61838C29.4183 5.33687 29.9954 7.38705 28.9798 8.92016L28.7795 9.22265L28.9798 9.52514C29.3424 10.0725 29.4644 10.4882 29.4644 11.1763C29.4644 11.8644 29.3424 12.2801 28.9798 12.8275L28.7795 13.13L28.9798 13.4325C30.1494 15.1981 29.1707 17.5561 27.1057 17.9477C26.9 17.9867 25.5485 18.0141 23.8336 18.0141C22.2267 18.0141 20.912 18.0267 20.912 18.042C20.912 18.0573 20.9852 18.3431 21.0747 18.677C21.5964 20.6242 21.8475 23.5541 21.5955 24.7543C21.4409 25.4905 21.0962 26.1122 20.5272 26.6813C19.9581 27.2504 19.3364 27.5951 18.6001 27.7497C18.023 27.8708 16.7203 27.8746 16.4479 27.756ZM18.5887 25.7104C18.9615 25.5454 19.3884 25.1184 19.5673 24.7314C19.6962 24.4526 19.7067 24.3285 19.7008 23.1588C19.6939 21.8145 19.5988 20.9695 19.312 19.7073C19.1335 18.9218 19.0699 18.6936 18.9189 18.2983L18.8104 18.0141H17.7095C16.7348 18.0141 16.5793 17.9991 16.3517 17.8831C16.0628 17.7356 15.8325 17.3604 15.8325 17.0373C15.8325 16.7142 16.0628 16.339 16.3517 16.1916C16.6028 16.0635 16.7259 16.0605 21.6935 16.0605C26.661 16.0605 26.7841 16.0575 27.0352 15.9294C27.3241 15.782 27.5545 15.4068 27.5545 15.0836C27.5545 14.7605 27.3241 14.3853 27.0352 14.2379C26.8057 14.1208 26.6523 14.1068 25.6008 14.1068C24.2305 14.1068 24.0113 14.0444 23.7782 13.5875C23.6121 13.262 23.6121 12.9979 23.7782 12.6724C24.0113 12.2156 24.2305 12.1531 25.6008 12.1531C26.971 12.1531 27.1903 12.0907 27.4234 11.6339C27.5894 11.3084 27.5894 11.0442 27.4234 10.7188C27.1903 10.2619 26.971 10.1995 25.6008 10.1995C24.5493 10.1995 24.3959 10.1855 24.1664 10.0684C23.8775 9.92095 23.6471 9.54579 23.6471 9.22265C23.6471 8.89951 23.8775 8.52434 24.1664 8.37691C24.3959 8.25982 24.5493 8.24582 25.6008 8.24582C26.971 8.24582 27.1903 8.18336 27.4234 7.72653C27.5894 7.40105 27.5894 7.13691 27.4234 6.81143C27.1903 6.3546 26.971 6.29215 25.6008 6.29215C24.5493 6.29215 24.3959 6.27815 24.1664 6.16106C23.8775 6.01362 23.6471 5.63845 23.6471 5.31532C23.6471 4.8198 24.1284 4.33849 24.624 4.33849C25.1195 4.33849 25.6008 3.85717 25.6008 3.36165C25.6008 3.03572 25.3705 2.66341 25.0761 2.51317C24.8172 2.38104 24.7496 2.37954 20.0788 2.40051C15.8328 2.41959 15.2865 2.43385 14.7866 2.53837C14.48 2.60246 13.2785 2.96949 12.1166 3.35397L10.004 4.05305L9.98741 10.1074L9.97081 16.1617L10.4231 16.2782C11.4297 16.5376 12.5209 17.1971 13.5107 18.1444C14.6581 19.2426 15.4788 20.3758 16.2225 21.8889C16.7378 22.9373 16.9855 23.615 17.3055 24.852C17.4306 25.3355 17.5466 25.7718 17.5632 25.8215C17.6049 25.9458 18.2031 25.8809 18.5887 25.7104ZM7.49851 17.8831C7.66398 17.7987 7.8023 17.6603 7.8867 17.4949C8.01571 17.242 8.01779 17.125 8.01779 10.1995C8.01779 3.27393 8.01571 3.15697 7.8867 2.9041C7.8023 2.73863 7.66398 2.60031 7.49851 2.51591C7.25391 2.39113 7.11865 2.38482 4.69916 2.38482H2.15679V10.1995V18.0141H4.69916C7.11865 18.0141 7.25391 18.0078 7.49851 17.8831ZM4.61587 6.15787C4.34093 6.01271 4.11046 5.62849 4.11046 5.31532C4.11046 4.8198 4.59178 4.33849 5.08729 4.33849C5.58281 4.33849 6.06412 4.8198 6.06412 5.31532C6.06412 5.63845 5.83379 6.01362 5.54484 6.16106C5.22398 6.32471 4.93009 6.32373 4.61587 6.15787Z" fill="#C6C4D4"/>
</svg>
