<svg xmlns="http://www.w3.org/2000/svg" width="84.349" height="84.349" viewBox="0 0 84.349 84.349">
  <g id="update-icon" transform="translate(-0.001 0)">
    <g id="Group_234" data-name="Group 234" transform="translate(41.449 39.607)">
      <g id="Group_233" data-name="Group 233">
        <path id="Path_196" data-name="Path 196" d="M254.4,240.9a1.648,1.648,0,1,0,0,2.329A1.648,1.648,0,0,0,254.4,240.9Z" transform="translate(-251.587 -240.419)" fill="#b57e23"/>
      </g>
    </g>
    <g id="Group_236" data-name="Group 236" transform="translate(51.171 16.708)">
      <g id="Group_235" data-name="Group 235">
        <path id="Path_197" data-name="Path 197" d="M324.661,103.83a8.237,8.237,0,1,0,0,11.649A8.234,8.234,0,0,0,324.661,103.83Zm-2.33,9.319a4.942,4.942,0,1,1,0-6.99A4.949,4.949,0,0,1,322.331,113.149Z" transform="translate(-310.603 -101.415)" fill="#b57e23"/>
      </g>
    </g>
    <g id="Group_238" data-name="Group 238" transform="translate(15.82 0)">
      <g id="Group_237" data-name="Group 237" transform="translate(0 0)">
        <path id="Path_198" data-name="Path 198" d="M164.066.482A1.642,1.642,0,0,0,162.842,0a73.186,73.186,0,0,0-19.784,4.1,55.158,55.158,0,0,0-20.929,12.693c-1.219,1.219-2.405,2.512-3.54,3.854-5.379-3.166-9.689-2.173-12.413-.715C99.9,23.287,96.018,32.4,96.018,38.924a1.648,1.648,0,0,0,2.813,1.165,10.488,10.488,0,0,1,8.723-2.926l.577.577a57.946,57.946,0,0,0-2.721,8,4.663,4.663,0,0,0,.2,2.862,15.6,15.6,0,0,0-4.449,3.137c-4.241,4.241-5.1,14.576-5.136,15.014a1.647,1.647,0,0,0,1.642,1.777q.065,0,.13-.005c.438-.034,10.773-.9,15.014-5.136a15.6,15.6,0,0,0,3.136-4.448,4.652,4.652,0,0,0,2.863.2,57.953,57.953,0,0,0,8-2.721l.577.577a10.488,10.488,0,0,1-2.926,8.722,1.647,1.647,0,0,0,1.165,2.812c6.521,0,15.637-3.883,18.994-10.157,1.458-2.724,2.451-7.034-.715-12.413,1.342-1.134,2.635-2.321,3.854-3.54a55.162,55.162,0,0,0,12.693-20.929,73.185,73.185,0,0,0,4.1-19.785A1.648,1.648,0,0,0,164.066.482ZM99.7,35.381c1.023-4.953,4-10.387,8.029-12.546,2.7-1.442,5.641-1.3,8.773.414a66.611,66.611,0,0,0-6.922,11.283,1.737,1.737,0,0,0-.872-.512A14.081,14.081,0,0,0,99.7,35.381ZM110.48,61.059c-2.265,2.265-7.579,3.46-10.938,3.948.488-3.359,1.683-8.672,3.948-10.938a11.872,11.872,0,0,1,4.218-2.772l5.544,5.544A11.87,11.87,0,0,1,110.48,61.059Zm7.511-5.112a1.546,1.546,0,0,1-1.44-.467l-3.227-3.227L109.069,48a1.547,1.547,0,0,1-.468-1.44,53.492,53.492,0,0,1,2.057-6.292l13.624,13.624A53.458,53.458,0,0,1,117.99,55.948Zm23.724.871c-2.158,4.033-7.593,7.005-12.546,8.029a14.022,14.022,0,0,0,1.35-9.048,1.721,1.721,0,0,0-.5-.832A66.635,66.635,0,0,0,141.3,48.046C143.015,51.178,143.156,54.124,141.714,56.819Zm3.714-16.728a59.8,59.8,0,0,1-4.751,4.262,63.294,63.294,0,0,1-13.133,8.141L112.055,37.005A63.284,63.284,0,0,1,120.2,23.872a59.785,59.785,0,0,1,4.263-4.752A51.37,51.37,0,0,1,143.185,7.559l13.8,13.8A51.366,51.366,0,0,1,145.428,40.09Zm12.746-22.2L146.66,6.374a74.067,74.067,0,0,1,14.456-2.941A74.078,74.078,0,0,1,158.175,17.889Z" transform="translate(-96.018 0)" fill="#b57e23"/>
      </g>
    </g>
    <g id="Group_240" data-name="Group 240" transform="translate(32.13 67.565)">
      <g id="Group_239" data-name="Group 239">
        <path id="Path_199" data-name="Path 199" d="M202.492,410.6a1.648,1.648,0,0,0-2.33,0l-4.659,4.661a1.647,1.647,0,1,0,2.33,2.329l4.659-4.661A1.648,1.648,0,0,0,202.492,410.6Z" transform="translate(-195.021 -410.121)" fill="#b57e23"/>
      </g>
    </g>
    <g id="Group_242" data-name="Group 242" transform="translate(8.83 44.267)">
      <g id="Group_241" data-name="Group 241">
        <path id="Path_200" data-name="Path 200" d="M61.065,269.184a1.647,1.647,0,0,0-2.33,0l-4.661,4.659a1.647,1.647,0,1,0,2.329,2.33l4.661-4.659A1.647,1.647,0,0,0,61.065,269.184Z" transform="translate(-53.592 -268.701)" fill="#b57e23"/>
      </g>
    </g>
    <g id="Group_244" data-name="Group 244" transform="translate(13.98 69.896)">
      <g id="Group_243" data-name="Group 243">
        <path id="Path_201" data-name="Path 201" d="M98.824,424.754a1.648,1.648,0,0,0-2.33,0l-11.16,11.158a1.647,1.647,0,0,0,2.33,2.33l11.16-11.158A1.647,1.647,0,0,0,98.824,424.754Z" transform="translate(-84.851 -424.271)" fill="#b57e23"/>
      </g>
    </g>
    <g id="Group_246" data-name="Group 246" transform="translate(0.8 69.896)">
      <g id="Group_245" data-name="Group 245">
        <path id="Path_202" data-name="Path 202" d="M18.824,424.754a1.648,1.648,0,0,0-2.33,0L5.334,435.912a1.647,1.647,0,0,0,2.33,2.33l11.16-11.158A1.647,1.647,0,0,0,18.824,424.754Z" transform="translate(-4.851 -424.271)" fill="#b57e23"/>
      </g>
    </g>
    <g id="Group_248" data-name="Group 248" transform="translate(0.001 55.916)">
      <g id="Group_247" data-name="Group 247" transform="translate(0)">
        <path id="Path_203" data-name="Path 203" d="M13.972,339.893a1.648,1.648,0,0,0-2.33,0L.484,351.052a1.647,1.647,0,1,0,2.33,2.33l11.158-11.16A1.648,1.648,0,0,0,13.972,339.893Z" transform="translate(-0.001 -339.41)" fill="#b57e23"/>
      </g>
    </g>
    <g id="Group_250" data-name="Group 250" transform="translate(46.108 32.618)">
      <g id="Group_249" data-name="Group 249">
        <path id="Path_204" data-name="Path 204" d="M285.013,198.473a1.648,1.648,0,0,0-2.33,0l-2.329,2.329a1.648,1.648,0,1,0,2.33,2.33l2.329-2.329A1.648,1.648,0,0,0,285.013,198.473Z" transform="translate(-279.871 -197.99)" fill="#b57e23"/>
      </g>
    </g>
  </g>
</svg>
