<svg width="56" height="61" viewBox="0 0 56 61" fill="none" xmlns="http://www.w3.org/2000/svg">
<path fill-rule="evenodd" clip-rule="evenodd" d="M25.9035 1.0423C25.7746 1.06901 25.234 1.23037 24.7024 1.40086L23.7357 1.7108L23.7331 4.47315C23.7309 6.90776 23.7049 7.29093 23.5142 7.7041C22.9888 8.8426 21.7939 9.26093 20.7586 8.66894C19.8759 8.16414 19.643 7.5752 19.6355 5.82925L19.6309 4.77465L19.224 5.24336C17.6527 7.05282 16.031 10.2812 15.3533 12.9488C14.9088 14.6986 15.023 14.5185 14.3115 14.5918C12.5521 14.7734 11.4371 15.9424 11.4371 17.6056C11.4371 18.8498 12.0578 19.8212 13.1897 20.3482C13.716 20.5932 13.742 20.5937 28.3056 20.5937C42.8692 20.5937 42.8952 20.5932 43.4216 20.3482C44.5534 19.8212 45.1741 18.8498 45.1741 17.6056C45.1741 15.9424 44.0591 14.7734 42.2997 14.5918C41.5882 14.5185 41.7025 14.6986 41.2579 12.9488C40.5802 10.2812 38.9585 7.05282 37.3873 5.24336L36.9803 4.77465L36.9757 5.82925C36.9682 7.5752 36.7353 8.16414 35.8526 8.66894C34.8173 9.26093 33.6224 8.8426 33.097 7.7041C32.9064 7.29093 32.8804 6.90776 32.8781 4.47315L32.8756 1.7108L31.9088 1.40379C31.3771 1.23482 30.7971 1.06632 30.6199 1.02929L30.2976 0.961914V5.24489C30.2976 9.97747 30.2929 10.0118 29.5629 10.6528C28.5626 11.531 26.9148 11.0998 26.4379 9.83498C26.3586 9.62441 26.3136 7.96119 26.3136 5.23575C26.3136 2.88762 26.274 0.97246 26.2257 0.979959C26.1774 0.987459 26.0324 1.01546 25.9035 1.0423ZM15.8869 24.9C15.888 25.2383 15.9669 26.0626 16.0619 26.7318C17.0554 33.7209 20.9737 38.9258 26.1905 40.1863C27.2064 40.4318 29.4049 40.4318 30.4207 40.1863C33.8485 39.3581 36.7613 36.8205 38.6527 33.0145C39.8328 30.64 40.7164 27.1787 40.7244 24.9L40.7265 24.2848H28.3056H15.8847L15.8869 24.9ZM17.2909 38.781C17.1298 38.8092 16.4711 38.9644 15.8272 39.1257C12.5707 39.9419 9.66084 41.5705 7.17104 43.9707C4.50138 46.5443 3.09067 48.9412 1.51592 53.5793C0.734691 55.8801 0.619036 56.3277 0.606967 57.0946C0.595366 57.8306 0.646573 58.0877 0.922059 58.6762C1.29597 59.4747 1.5581 59.7886 2.25308 60.2698C3.31214 61.003 1.74863 60.9615 28.3056 60.9615C54.8626 60.9615 53.2991 61.003 54.3581 60.2698C55.0531 59.7886 55.3153 59.4747 55.6892 58.6762C55.9646 58.0877 56.0159 57.8306 56.0043 57.0946C55.9922 56.3277 55.8765 55.8801 55.0953 53.5793C53.5206 48.9412 52.1098 46.5443 49.4402 43.9707C46.9506 41.5708 44.0418 39.9426 40.784 39.1255C40.1401 38.964 39.3628 38.7957 39.0566 38.7515L38.4999 38.6711L37.7127 39.4074C35.8987 41.1043 33.5162 42.4948 31.528 43.0171C28.5739 43.793 25.6671 43.5025 22.8568 42.1508C21.4581 41.4779 20.1272 40.5567 18.9129 39.4208C18.1377 38.6957 18.0268 38.6519 17.2909 38.781Z" fill="#8C7BEE"/>
</svg>
